<svg id="visual" viewBox="0 0 900 600" width="900" height="600" xmlns="http://www.w3.org/2000/svg" xmlns:xlink="http://www.w3.org/1999/xlink" version="1.1"><path d="M0 37L16.7 40C33.3 43 66.7 49 100 56C133.3 63 166.7 71 200 75C233.3 79 266.7 79 300 74C333.3 69 366.7 59 400 53C433.3 47 466.7 45 500 52C533.3 59 566.7 75 600 83C633.3 91 666.7 91 700 84C733.3 77 766.7 63 800 60C833.3 57 866.7 65 883.3 69L900 73L900 0L883.3 0C866.7 0 833.3 0 800 0C766.7 0 733.3 0 700 0C666.7 0 633.3 0 600 0C566.7 0 533.3 0 500 0C466.7 0 433.3 0 400 0C366.7 0 333.3 0 300 0C266.7 0 233.3 0 200 0C166.7 0 133.3 0 100 0C66.7 0 33.3 0 16.7 0L0 0Z" fill="#c8ddff"></path><path d="M0 85L16.7 91C33.3 97 66.7 109 100 114C133.3 119 166.7 117 200 117C233.3 117 266.7 119 300 117C333.3 115 366.7 109 400 109C433.3 109 466.7 115 500 121C533.3 127 566.7 133 600 136C633.3 139 666.7 139 700 137C733.3 135 766.7 131 800 129C833.3 127 866.7 127 883.3 127L900 127L900 71L883.3 67C866.7 63 833.3 55 800 58C766.7 61 733.3 75 700 82C666.7 89 633.3 89 600 81C566.7 73 533.3 57 500 50C466.7 43 433.3 45 400 51C366.7 57 333.3 67 300 72C266.7 77 233.3 77 200 73C166.7 69 133.3 61 100 54C66.7 47 33.3 41 16.7 38L0 35Z" fill="#bdd7ff"></path><path d="M0 151L16.7 162C33.3 173 66.7 195 100 201C133.3 207 166.7 197 200 193C233.3 189 266.7 191 300 199C333.3 207 366.7 221 400 228C433.3 235 466.7 235 500 232C533.3 229 566.7 223 600 226C633.3 229 666.7 241 700 244C733.3 247 766.7 241 800 235C833.3 229 866.7 223 883.3 220L900 217L900 125L883.3 125C866.7 125 833.3 125 800 127C766.7 129 733.3 133 700 135C666.7 137 633.3 137 600 134C566.7 131 533.3 125 500 119C466.7 113 433.3 107 400 107C366.7 107 333.3 113 300 115C266.7 117 233.3 115 200 115C166.7 115 133.3 117 100 112C66.7 107 33.3 95 16.7 89L0 83Z" fill="#b2d0ff"></path><path d="M0 337L16.7 343C33.3 349 66.7 361 100 365C133.3 369 166.7 365 200 369C233.3 373 266.7 385 300 392C333.3 399 366.7 401 400 400C433.3 399 466.7 395 500 390C533.3 385 566.7 379 600 379C633.3 379 666.7 385 700 390C733.3 395 766.7 399 800 394C833.3 389 866.7 375 883.3 368L900 361L900 215L883.3 218C866.7 221 833.3 227 800 233C766.7 239 733.3 245 700 242C666.7 239 633.3 227 600 224C566.7 221 533.3 227 500 230C466.7 233 433.3 233 400 226C366.7 219 333.3 205 300 197C266.7 189 233.3 187 200 191C166.7 195 133.3 205 100 199C66.7 193 33.3 171 16.7 160L0 149Z" fill="#a7caff"></path><path d="M0 547L16.7 540C33.3 533 66.7 519 100 517C133.3 515 166.7 525 200 529C233.3 533 266.7 531 300 530C333.3 529 366.7 529 400 526C433.3 523 466.7 517 500 519C533.3 521 566.7 531 600 532C633.3 533 666.7 525 700 524C733.3 523 766.7 529 800 532C833.3 535 866.7 535 883.3 535L900 535L900 359L883.3 366C866.7 373 833.3 387 800 392C766.7 397 733.3 393 700 388C666.7 383 633.3 377 600 377C566.7 377 533.3 383 500 388C466.7 393 433.3 397 400 398C366.7 399 333.3 397 300 390C266.7 383 233.3 371 200 367C166.7 363 133.3 367 100 363C66.7 359 33.3 347 16.7 341L0 335Z" fill="#9cc3ff"></path><path d="M0 601L16.7 601C33.3 601 66.7 601 100 601C133.3 601 166.7 601 200 601C233.3 601 266.7 601 300 601C333.3 601 366.7 601 400 601C433.3 601 466.7 601 500 601C533.3 601 566.7 601 600 601C633.3 601 666.7 601 700 601C733.3 601 766.7 601 800 601C833.3 601 866.7 601 883.3 601L900 601L900 533L883.3 533C866.7 533 833.3 533 800 530C766.7 527 733.3 521 700 522C666.7 523 633.3 531 600 530C566.7 529 533.3 519 500 517C466.7 515 433.3 521 400 524C366.7 527 333.3 527 300 528C266.7 529 233.3 531 200 527C166.7 523 133.3 513 100 515C66.7 517 33.3 531 16.7 538L0 545Z" fill="#91bcff"></path></svg>